<?xml version="1.0" encoding="utf-8"?>
<!-- Generator: Adobe Illustrator 20.0.0, SVG Export Plug-In . SVG Version: 6.00 Build 0)  -->
<svg version="1.1" id="Layer_1" xmlns="http://www.w3.org/2000/svg" xmlns:xlink="http://www.w3.org/1999/xlink" x="0px" y="0px"
	 viewBox="0 0 514 516" enable-background="new 0 0 514 516" xml:space="preserve">
<path fill-rule="evenodd" clip-rule="evenodd" d="M256,51.47c67.27,0,75.23,0.26,101.8,1.47c24.56,1.12,37.9,5.22,46.78,8.67
	c11.75,4.57,20.15,10.03,28.96,18.85c8.82,8.81,14.28,17.21,18.85,28.96c3.45,8.88,7.55,22.22,8.67,46.78
	c1.21,26.57,1.47,34.53,1.47,101.8s-0.26,75.23-1.47,101.8c-1.12,24.56-5.22,37.9-8.67,46.78c-4.57,11.75-10.03,20.15-18.85,28.96
	c-8.81,8.82-17.21,14.28-28.96,18.85c-8.88,3.45-22.22,7.55-46.78,8.67c-26.56,1.21-34.53,1.47-101.8,1.47s-75.24-0.26-101.8-1.47
	c-24.56-1.12-37.9-5.22-46.78-8.67c-11.75-4.57-20.15-10.03-28.96-18.85c-8.82-8.81-14.28-17.21-18.85-28.96
	c-3.45-8.88-7.55-22.22-8.67-46.78c-1.21-26.57-1.47-34.53-1.47-101.8s0.26-75.23,1.47-101.8c1.12-24.56,5.22-37.9,8.67-46.78
	c4.57-11.75,10.03-20.15,18.85-28.96c8.81-8.82,17.21-14.28,28.96-18.85c8.88-3.45,22.22-7.55,46.78-8.67
	C180.77,51.73,188.73,51.47,256,51.47z M256,6.08c-68.42,0-77,0.29-103.87,1.52c-26.81,1.22-45.12,5.48-61.15,11.71
	c-16.56,6.43-30.61,15.05-44.62,29.05c-14,14.01-22.62,28.06-29.05,44.62c-6.23,16.03-10.49,34.34-11.71,61.15
	C4.37,181,4.08,189.58,4.08,258s0.29,77,1.52,103.87c1.22,26.81,5.48,45.12,11.71,61.15c6.43,16.56,15.05,30.61,29.05,44.62
	c14.01,14,28.06,22.62,44.62,29.06c16.03,6.22,34.34,10.48,61.15,11.7c26.87,1.23,35.45,1.52,103.87,1.52s77-0.29,103.87-1.52
	c26.81-1.22,45.12-5.48,61.15-11.7c16.56-6.44,30.61-15.06,44.62-29.06c14-14.01,22.62-28.06,29.06-44.62
	c6.22-16.03,10.48-34.34,11.7-61.15c1.23-26.87,1.52-35.45,1.52-103.87s-0.29-77-1.52-103.87c-1.22-26.81-5.48-45.12-11.7-61.15
	c-6.44-16.56-15.06-30.61-29.06-44.62c-14.01-14-28.06-22.62-44.62-29.05c-16.03-6.23-34.34-10.49-61.15-11.71
	C333,6.37,324.42,6.08,256,6.08z M256,128.64c-71.45,0-129.36,57.91-129.36,129.36S184.55,387.36,256,387.36
	S385.36,329.45,385.36,258S327.45,128.64,256,128.64z M256,341.97c-46.38,0-83.97-37.59-83.97-83.97s37.59-83.97,83.97-83.97
	s83.97,37.59,83.97,83.97S302.38,341.97,256,341.97z M420.71,123.52c0,16.7-13.54,30.23-30.23,30.23
	c-16.7,0-30.23-13.53-30.23-30.23c0-16.69,13.53-30.23,30.23-30.23C407.17,93.29,420.71,106.83,420.71,123.52z"/>
</svg>
